0
SECTION
2
HEADER
9
$INSUNITS
70
1
0
ENDSEC
0
SECTION
2
TABLES
0
TABLE
2
LAYER
70
3
0
LAYER
2
0
70
0
62
7
6
CONTINUOUS
0
LAYER
2
PARTS
70
0
62
1
6
CONTINUOUS
0
LAYER
2
SHEET
70
0
62
3
6
CONTINUOUS
0
ENDTAB
0
ENDSEC
0
SECTION
2
ENTITIES
0
LWPOLYLINE
8
SHEET
90
4
70
1
10
0
20
0
10
60
20
0
10
60
20
120
10
0
20
120
0
LWPOLYLINE
8
PARTS
90
4
70
1
10
0.25
20
0.25
10
5.25
20
0.25
10
5.25
20
10.25
10
0.25
20
10.25
0
LWPOLYLINE
8
PARTS
90
4
70
1
10
1.5
20
2.25
10
2.5
20
2.25
10
2.5
20
3
10
1.5
20
3
0
LWPOLYLINE
8
PARTS
90
4
70
1
10
1.5
20
5.25
10
2.5
20
5.25
10
2.5
20
6
10
1.5
20
6
0
LWPOLYLINE
8
PARTS
90
4
70
1
10
1.5
20
8.25
10
2.5
20
8.25
10
2.5
20
9
10
1.5
20
9
0
LWPOLYLINE
8
PARTS
90
4
70
1
10
5.5
20
0.25
10
13.5
20
0.25
10
13.5
20
3.25
10
5.5
20
3.25
0
LWPOLYLINE
8
PARTS
90
32
70
1
10
10.125
20
1.75
10
10.112991
20
1.871931
10
10.077425
20
1.989177
10
10.019669
20
2.097231
10
9.941942
20
2.191942
10
9.847231
20
2.269669
10
9.739177
20
2.327425
10
9.621931
20
2.362991
10
9.5
20
2.375
10
9.378069
20
2.362991
10
9.260823
20
2.327425
10
9.152769
20
2.269669
10
9.058058
20
2.191942
10
8.980331
20
2.097231
10
8.922575
20
1.989177
10
8.887009
20
1.871931
10
8.875
20
1.75
10
8.887009
20
1.628069
10
8.922575
20
1.510823
10
8.980331
20
1.402769
10
9.058058
20
1.308058
10
9.152769
20
1.230331
10
9.260823
20
1.172575
10
9.378069
20
1.137009
10
9.5
20
1.125
10
9.621931
20
1.137009
10
9.739177
20
1.172575
10
9.847231
20
1.230331
10
9.941942
20
1.308058
10
10.019669
20
1.402769
10
10.077425
20
1.510823
10
10.112991
20
1.628069
0
LWPOLYLINE
8
PARTS
90
4
70
1
10
13.75
20
0.25
10
21.75
20
0.25
10
21.75
20
3.25
10
13.75
20
3.25
0
LWPOLYLINE
8
PARTS
90
32
70
1
10
18.375
20
1.75
10
18.362991
20
1.871931
10
18.327425
20
1.989177
10
18.269669
20
2.097231
10
18.191942
20
2.191942
10
18.097231
20
2.269669
10
17.989177
20
2.327425
10
17.871931
20
2.362991
10
17.75
20
2.375
10
17.628069
20
2.362991
10
17.510823
20
2.327425
10
17.402769
20
2.269669
10
17.308058
20
2.191942
10
17.230331
20
2.097231
10
17.172575
20
1.989177
10
17.137009
20
1.871931
10
17.125
20
1.75
10
17.137009
20
1.628069
10
17.172575
20
1.510823
10
17.230331
20
1.402769
10
17.308058
20
1.308058
10
17.402769
20
1.230331
10
17.510823
20
1.172575
10
17.628069
20
1.137009
10
17.75
20
1.125
10
17.871931
20
1.137009
10
17.989177
20
1.172575
10
18.097231
20
1.230331
10
18.191942
20
1.308058
10
18.269669
20
1.402769
10
18.327425
20
1.510823
10
18.362991
20
1.628069
0
LWPOLYLINE
8
PARTS
90
6
70
1
10
22.75
20
0.25
10
28.75
20
0.25
10
28.75
20
2.25
10
24.75
20
2.25
10
24.75
20
5.25
10
22.75
20
5.25
0
LWPOLYLINE
8
PARTS
90
32
70
1
10
27.75
20
1.25
10
27.740393
20
1.347545
10
27.71194
20
1.441342
10
27.665735
20
1.527785
10
27.603553
20
1.603553
10
27.527785
20
1.665735
10
27.441342
20
1.71194
10
27.347545
20
1.740393
10
27.25
20
1.75
10
27.152455
20
1.740393
10
27.058658
20
1.71194
10
26.972215
20
1.665735
10
26.896447
20
1.603553
10
26.834265
20
1.527785
10
26.78806
20
1.441342
10
26.759607
20
1.347545
10
26.75
20
1.25
10
26.759607
20
1.152455
10
26.78806
20
1.058658
10
26.834265
20
0.972215
10
26.896447
20
0.896447
10
26.972215
20
0.834265
10
27.058658
20
0.78806
10
27.152455
20
0.759607
10
27.25
20
0.75
10
27.347545
20
0.759607
10
27.441342
20
0.78806
10
27.527785
20
0.834265
10
27.603553
20
0.896447
10
27.665735
20
0.972215
10
27.71194
20
1.058658
10
27.740393
20
1.152455
0
LWPOLYLINE
8
PARTS
90
6
70
1
10
29
20
0.25
10
35
20
0.25
10
35
20
2.25
10
31
20
2.25
10
31
20
5.25
10
29
20
5.25
0
LWPOLYLINE
8
PARTS
90
32
70
1
10
34
20
1.25
10
33.990393
20
1.347545
10
33.96194
20
1.441342
10
33.915735
20
1.527785
10
33.853553
20
1.603553
10
33.777785
20
1.665735
10
33.691342
20
1.71194
10
33.597545
20
1.740393
10
33.5
20
1.75
10
33.402455
20
1.740393
10
33.308658
20
1.71194
10
33.222215
20
1.665735
10
33.146447
20
1.603553
10
33.084265
20
1.527785
10
33.03806
20
1.441342
10
33.009607
20
1.347545
10
33
20
1.25
10
33.009607
20
1.152455
10
33.03806
20
1.058658
10
33.084265
20
0.972215
10
33.146447
20
0.896447
10
33.222215
20
0.834265
10
33.308658
20
0.78806
10
33.402455
20
0.759607
10
33.5
20
0.75
10
33.597545
20
0.759607
10
33.691342
20
0.78806
10
33.777785
20
0.834265
10
33.853553
20
0.896447
10
33.915735
20
0.972215
10
33.96194
20
1.058658
10
33.990393
20
1.152455
0
ENDSEC
0
EOF